<mxfile host="app.diagrams.net" modified="2024-05-28T13:35:59.525Z" agent="Mozilla/5.0 (Windows NT 10.0; Win64; x64) AppleWebKit/537.36 (KHTML, like Gecko) Chrome/121.0.0.0 Safari/537.36" etag="Ft6XyCY9LmBEpN_UT9BN" version="24.4.9" type="device">
  <diagram name="PÃ¡gina-1" id="f1Gig8BHqoJHJ9nQciUp">
    <mxGraphModel dx="1434" dy="1941" grid="1" gridSize="10" guides="1" tooltips="1" connect="1" arrows="1" fold="1" page="1" pageScale="1" pageWidth="827" pageHeight="1169" math="0" shadow="0">
      <root>
        <mxCell id="0" />
        <mxCell id="1" parent="0" />
        <mxCell id="6K_7V892IKkoWn2Sgjnb-1" value="" style="shape=ext;double=1;rounded=1;whiteSpace=wrap;html=1;" vertex="1" parent="1">
          <mxGeometry x="210" y="-10" width="450" height="800" as="geometry" />
        </mxCell>
        <mxCell id="6K_7V892IKkoWn2Sgjnb-3" value="cadastro de fornecedor" style="text;strokeColor=none;fillColor=none;html=1;fontSize=24;fontStyle=1;verticalAlign=middle;align=center;" vertex="1" parent="1">
          <mxGeometry x="385" y="40" width="100" height="40" as="geometry" />
        </mxCell>
        <mxCell id="6K_7V892IKkoWn2Sgjnb-17" value="" style="rounded=0;whiteSpace=wrap;html=1;" vertex="1" parent="1">
          <mxGeometry x="260" y="150" width="360" height="30" as="geometry" />
        </mxCell>
        <mxCell id="6K_7V892IKkoWn2Sgjnb-20" value="nome da empresa:" style="text;html=1;align=center;verticalAlign=middle;whiteSpace=wrap;rounded=0;" vertex="1" parent="1">
          <mxGeometry x="245" y="120" width="140" height="30" as="geometry" />
        </mxCell>
        <mxCell id="6K_7V892IKkoWn2Sgjnb-21" value="" style="rounded=0;whiteSpace=wrap;html=1;" vertex="1" parent="1">
          <mxGeometry x="260" y="320" width="360" height="30" as="geometry" />
        </mxCell>
        <mxCell id="6K_7V892IKkoWn2Sgjnb-22" value="Produto fornecido:" style="text;html=1;align=center;verticalAlign=middle;whiteSpace=wrap;rounded=0;" vertex="1" parent="1">
          <mxGeometry x="245" y="290" width="140" height="30" as="geometry" />
        </mxCell>
        <mxCell id="6K_7V892IKkoWn2Sgjnb-23" value="" style="rounded=0;whiteSpace=wrap;html=1;" vertex="1" parent="1">
          <mxGeometry x="260" y="460" width="360" height="30" as="geometry" />
        </mxCell>
        <mxCell id="6K_7V892IKkoWn2Sgjnb-25" value="cnpj" style="text;html=1;align=center;verticalAlign=middle;whiteSpace=wrap;rounded=0;" vertex="1" parent="1">
          <mxGeometry x="260" y="430" width="60" height="30" as="geometry" />
        </mxCell>
        <mxCell id="6K_7V892IKkoWn2Sgjnb-26" value="" style="rounded=1;whiteSpace=wrap;html=1;" vertex="1" parent="1">
          <mxGeometry x="375" y="610" width="120" height="60" as="geometry" />
        </mxCell>
        <mxCell id="6K_7V892IKkoWn2Sgjnb-27" value="cadastrar" style="text;html=1;align=center;verticalAlign=middle;whiteSpace=wrap;rounded=0;" vertex="1" parent="1">
          <mxGeometry x="405" y="625" width="60" height="30" as="geometry" />
        </mxCell>
      </root>
    </mxGraphModel>
  </diagram>
</mxfile>
